<svg xmlns="http://www.w3.org/2000/svg" version="1.1" xmlns:xlink="http://www.w3.org/1999/xlink" width="512" height="512" x="0" y="0" viewBox="0 0 503.607 503.607" style="enable-background:new 0 0 512 512" xml:space="preserve" class=""><g><path d="M282.02 363.436c-6.715 1.679-16.787 5.036-29.377 5.036-22.662 0-44.485-5.875-62.951-18.466-18.466-12.59-32.734-28.538-42.807-48.682L39.449 113.311l-7.554 12.59C10.911 163.672 0 205.639 0 251.803c0 62.951 20.984 118.348 61.272 165.351 40.289 46.164 92.328 74.702 152.761 83.934l5.875.839 84.774-145.207-22.662 6.716zm-71.345 119.187c-53.718-9.233-99.882-35.252-136.813-77.22-37.771-43.646-57.075-94.846-57.075-153.6 0-37.771 7.554-73.023 22.662-104.079l90.649 161.154c10.911 21.823 26.859 40.289 48.682 54.557 21.823 13.43 46.164 20.984 72.184 20.984 6.715 0 12.59-.839 17.626-1.679l-57.915 99.883z" fill="#ffffff" opacity="1" data-original="#000000" class=""></path><path d="M138.492 220.748c5.875-25.18 20.144-46.164 41.967-62.951 20.144-15.948 43.646-23.502 71.344-23.502h223.266l-7.554-12.59c-20.984-36.092-50.361-64.63-90.649-88.131C339.095 10.911 297.128 0 251.803 0c-38.61 0-76.38 8.393-109.954 25.18-36.092 17.626-67.148 42.807-88.97 72.184l-3.357 4.197 83.934 137.652 5.036-18.465zM69.666 103.239c20.144-26.02 47.003-47.003 79.738-62.951 31.056-15.948 65.469-23.502 102.4-23.502 41.967 0 81.416 10.911 115.829 31.895 33.574 19.305 57.915 41.967 77.22 69.666H250.964c-31.056 0-57.915 8.393-81.416 26.859-19.305 15.108-33.574 32.734-41.967 53.718l-57.915-95.685z" fill="#ffffff" opacity="1" data-original="#000000" class=""></path><path d="m485.141 156.957-2.518-5.036h-167.03l14.269 14.269c25.18 25.18 38.61 55.397 38.61 85.613 0 24.341-6.715 47.003-20.984 67.148L240.052 503.607h14.269c68.826-.839 127.58-26.02 176.262-74.702s73.023-108.275 73.023-177.102c.001-25.18-3.357-61.272-18.465-94.846zm-66.308 260.197c-41.967 41.967-91.489 64.63-149.403 68.826l91.489-157.797c15.948-23.502 23.502-48.682 23.502-76.38 0-29.377-10.072-57.915-30.216-83.095h117.508c12.59 29.377 15.108 61.272 15.108 83.095-.001 63.79-22.664 119.187-67.988 165.351z" fill="#ffffff" opacity="1" data-original="#000000" class=""></path><path d="M151.082 251.803c0 54.557 46.164 100.721 100.721 100.721s100.721-46.164 100.721-100.721-46.164-100.721-100.721-100.721-100.721 46.164-100.721 100.721zm100.721-83.934c45.325 0 83.934 38.61 83.934 83.934s-38.61 83.934-83.934 83.934-83.934-38.61-83.934-83.934 38.61-83.934 83.934-83.934z" fill="#ffffff" opacity="1" data-original="#000000" class=""></path></g></svg>