<svg xmlns="http://www.w3.org/2000/svg" version="1.1" xmlns:xlink="http://www.w3.org/1999/xlink" width="512" height="512" x="0" y="0" viewBox="0 0 512 512" style="enable-background:new 0 0 512 512" xml:space="preserve" class=""><g><path fill="#f15a26" d="M495.3 327.9H16.7L51.6 256l-34.9-71.9h478.6L460.4 256z" opacity="1" data-original="#f15a26"></path><g fill="#f2f2f3"><path d="M78.5 303.5h26.9v-32.6h41.9v-20.7h-41.9v-20.9H153v-20.8H78.5zM246.1 262.2c3.4-5.2 5.2-11.4 5.2-18.5 0-7.2-1.7-13.5-5.2-18.8-3.4-5.3-8.3-9.3-14.6-12.1s-13.8-4.2-22.5-4.2h-43.4v95h26.9v-25.2h14.7l17.2 25.2h28.8l-20.6-30c5.7-2.8 10.3-6.6 13.5-11.4zM220 233.3c2.8 2.4 4.1 5.9 4.1 10.3 0 4.3-1.4 7.7-4.1 10.2-2.8 2.4-6.9 3.7-12.5 3.7h-14.9v-27.8h14.9c5.5 0 9.7 1.2 12.5 3.6zM292.6 265.4h42.2v-20.1h-42.2v-16h47.9v-20.8H266v95h76.3v-20.8h-49.7zM383.8 282.7v-17.3H426v-20.1h-42.2v-16h47.9v-20.8h-74.5v95h76.3v-20.8z" fill="#f2f2f3" opacity="1" data-original="#f2f2f3" class=""></path></g></g></svg>