<svg xmlns="http://www.w3.org/2000/svg" version="1.1" xmlns:xlink="http://www.w3.org/1999/xlink" width="512" height="512" x="0" y="0" viewBox="0 0 512 512" style="enable-background:new 0 0 512 512" xml:space="preserve" class=""><g><path fill="#9e70ff" d="M265.4 448.7H115.7C85 448.7 60 423.8 60 393V170.7C60 140 85 115 115.7 115h124.5l-27.6 137.8h86.6z" opacity="1" data-original="#70ecff" class=""></path><g fill="#454754"><path d="M396.3 47.8h-96.9c-5 0-9 4-9 9s4 9 9 9h96.9c25.8 0 46.7 21 46.7 46.7V393c0 25.8-21 46.7-46.7 46.7H276.1l11.7-67.4c41.5-4.7 78.7-18.6 105.1-39.6 3.9-3.1 4.5-8.8 1.4-12.6-3.1-3.9-8.8-4.5-12.6-1.4-22.4 17.8-54.8 30.2-90.7 35.1l17.2-99.4c.5-2.6-.3-5.3-2-7.3s-4.2-3.2-6.9-3.2h-75.6l37-185.2 9.5-47.7c1-4.9-2.2-9.6-7.1-10.6s-9.6 2.2-10.6 7.1l-8.1 40.4H115.7C80 47.9 51 76.9 51 112.6V393c0 35.7 29 64.7 64.7 64.7H223c5 0 9-4 9-9s-4-9-9-9H115.7C90 439.7 69 418.8 69 393V112.5c0-25.8 21-46.7 46.7-46.7h125.2l-37 185.2c-.5 2.6.2 5.4 1.9 7.5s4.3 3.3 7 3.3h75.9l-16.2 93.8c-5.4.3-10.9.5-16.4.5-49.2 0-96.2-14-125.7-37.5-3.9-3.1-9.5-2.5-12.6 1.4s-2.5 9.5 1.4 12.6c33 26.3 82.9 41.4 136.9 41.4 4.4 0 8.8-.1 13.2-.3l-22.1 127.5c-.8 4.9 2.4 9.6 7.3 10.4.5.1 1 .1 1.5.1 4.3 0 8.1-3.1 8.9-7.5l8.1-46.7h123.3c35.7 0 64.7-29 64.7-64.7V112.5c0-35.7-29.1-64.7-64.7-64.7z" fill="#ffffff" opacity="1" data-original="#454754" class=""></path><path d="M171.3 183v-28.6c0-5-4-9-9-9s-9 4-9 9V183c0 5 4 9 9 9s9-4 9-9zM358.7 183v-28.6c0-5-4-9-9-9s-9 4-9 9V183c0 5 4 9 9 9s9-4 9-9z" fill="#ffffff" opacity="1" data-original="#454754" class=""></path></g></g></svg>