<svg xmlns="http://www.w3.org/2000/svg" version="1.1" xmlns:xlink="http://www.w3.org/1999/xlink" width="512" height="512" x="0" y="0" viewBox="0 0 32 32" style="enable-background:new 0 0 512 512" xml:space="preserve" class=""><g><path fill="#000000" d="m30.15 12.83-2.25-.45c-.24-.78-.55-1.53-.93-2.23l1.28-1.91c.28-.42.22-.98-.14-1.34l-1.48-1.49-1.53-1.52c-.36-.36-.92-.42-1.34-.14l-1.91 1.28c-.7-.38-1.45-.69-2.23-.93l-.45-2.25c-.1-.49-.53-.85-1.04-.85h-4.26c-.51 0-.94.36-1.04.85l-.45 2.25c-.78.24-1.53.55-2.23.93L8.24 3.75c-.42-.28-.98-.22-1.34.14L5.4 5.38 3.89 6.9c-.36.36-.42.92-.14 1.34l1.28 1.91c-.38.7-.69 1.45-.93 2.23l-2.25.45c-.49.1-.85.53-.85 1.04v4.26c0 .51.36.94.85 1.04l2.25.45c.24.78.55 1.53.93 2.23l-1.28 1.91c-.28.42-.22.98.14 1.34l1.49 1.5 1.52 1.51c.36.36.92.42 1.34.14l1.91-1.28c.7.38 1.45.69 2.23.93l.45 2.25c.1.49.53.85 1.04.85h4.26c.51 0 .94-.36 1.04-.85l.45-2.25c.78-.24 1.53-.55 2.23-.93l1.91 1.28c.42.28.98.22 1.34-.14l1.49-1.48 1.52-1.53c.36-.36.42-.92.14-1.34l-1.28-1.91c.38-.7.69-1.45.93-2.23l2.25-.45c.49-.1.85-.53.85-1.04v-4.26c0-.51-.36-.94-.85-1.04zM16 21c-2.76 0-5-2.24-5-5s2.24-5 5-5 5 2.24 5 5-2.24 5-5 5z" opacity="1" data-original="#9266ff" class=""></path></g></svg>