<svg xmlns="http://www.w3.org/2000/svg" version="1.1" xmlns:xlink="http://www.w3.org/1999/xlink" width="512" height="512" x="0" y="0" viewBox="0 0 32 32" style="enable-background:new 0 0 512 512" xml:space="preserve" class=""><g><linearGradient id="a" x1="2.73" x2="29.71" y1="29.27" y2="2.29" gradientUnits="userSpaceOnUse"><stop offset="0" stop-color="#6d03a8"></stop><stop offset="1" stop-color="#fd60c4"></stop></linearGradient><path fill="url(#a)" d="M28 16v11.5a2.5 2.5 0 0 1-2.5 2.5h-21A2.5 2.5 0 0 1 2 27.5v-21A2.5 2.5 0 0 1 4.5 4H16a1 1 0 0 1 0 2H4.5a.5.5 0 0 0-.5.5v21a.5.5 0 0 0 .5.5h21a.5.5 0 0 0 .5-.5V16a1 1 0 0 1 2 0zm1-14h-7a1 1 0 0 0 0 2h4.59l-8.3 8.29a1 1 0 0 0 0 1.42 1 1 0 0 0 1.42 0L28 5.41V10a1 1 0 0 0 2 0V3a1 1 0 0 0-1-1z" opacity="1" data-original="url(#a)" class=""></path></g></svg>