<svg xmlns="http://www.w3.org/2000/svg" xml:space="preserve" width="793.701" height="1122.518" style="shape-rendering:geometricPrecision;text-rendering:geometricPrecision;image-rendering:optimizeQuality;fill-rule:evenodd;clip-rule:evenodd" viewBox="0 0 8267.72 11692.91"><defs><linearGradient id="id0" gradientUnits="userSpaceOnUse" x1="5046.64" y1="5846.46" x2="3221.08" y2="5846.45"><stop offset="0" style="stop-opacity:1;stop-color:#e32066"/><stop offset=".741" style="stop-opacity:1;stop-color:#7c09d6"/><stop offset="1" style="stop-opacity:1;stop-color:#7c09db"/></linearGradient><style>.fil2{fill:#fefefe;fill-rule:nonzero}</style></defs><g id="Layer_x0020_1"><path style="fill:none" d="M2524.48 4237.08h3218.75v3218.75H2524.48z"/><g id="_2263619381552"><path d="m4133.76 6899.28-17.48-2.21c-23.81-3.02-238.71-34.54-456.47-209.48-129.11-103.72-231.7-236.41-304.96-394.38-88.78-191.47-133.77-419.93-133.77-679.04v-416.79l91.84 6.33c.83.06 111.82 6.5 260.59-32.56 196.3-51.5 363.11-153.93 495.75-304.39l64.5-73.13 64.44 73.13c132.69 150.45 299.46 252.89 495.8 304.39 148.72 39.06 259.67 32.61 260.79 32.56l91.84-6.33-.22 92.07v324.72c0 259.11-45 487.57-133.76 678.98-73.3 158.02-175.9 290.71-305 394.43-217.75 174.96-432.65 206.46-456.41 209.48l-17.48 2.21z" style="fill:url(#id0);fill-rule:nonzero"/><path class="fil2" d="M4436.33 5596.37v20.95h-80.67c-28.93 0-55.21 11.82-74.24 30.85-2.24 2.24-4.39 4.59-6.42 7.03v-58.83c0-44.08 35.95-80.03 80.03-80.03h1.27c44.07 0 80.03 35.96 80.03 80.03z"/><path class="fil2" d="M4047.57 5808.06h89.91c69.17 0 132 28.24 177.49 73.74 45.5 45.5 73.74 108.32 73.74 177.49 0 69.17-28.24 132-73.74 177.49-45.49 45.5-108.32 73.74-177.49 73.74-69.17 0-132-28.24-177.49-73.74-45.5-45.49-73.74-108.32-73.74-177.49v-89.9h-85.11v95.39c0 91.42 37.46 174.59 97.8 234.92 60.34 60.34 143.51 97.8 234.93 97.8 91.42 0 174.59-37.46 234.93-97.8 60.34-60.33 97.8-143.51 97.8-234.92v-261.7h-110.92c-44.36 0-80.66-36.3-80.66-80.66 0-44.37 36.3-80.66 80.66-80.66h191.59c27.12 0 51.22 13.56 65.86 34.24l.97 1.4.04.06c8.36 12.3 13.39 27.04 13.77 42.89.02.64.02 1.28.02 1.93v342.52c0 135.93-55.56 259.47-145.07 348.98-89.51 89.5-213.05 145.07-348.98 145.07-135.95 0-259.48-55.56-348.99-145.07-89.51-89.5-145.07-213.04-145.07-348.98v-256.72h246.43v-471.16c0-44.08 35.95-80.03 80.03-80.03h1.27c44.07 0 80.03 35.95 80.03 80.03v471.16zm89.91 161.33h-89.91v89.9c0 24.64 10.14 47.11 26.47 63.43 16.33 16.33 38.8 26.47 63.44 26.47 24.63 0 47.1-10.14 63.43-26.47s26.47-38.8 26.47-63.43c0-24.64-10.14-47.11-26.47-63.43-16.33-16.33-38.8-26.47-63.43-26.47z"/><path class="fil2" d="M4241.81 5468.48v292.28c-32.84-11.56-67.97-17.85-104.33-17.85h-56.99v-274.43c0-44.07 35.95-80.03 80.03-80.03h1.27c44.08 0 80.03 35.96 80.03 80.03z"/></g></g></svg>