<svg xmlns="http://www.w3.org/2000/svg" version="1.1" xmlns:xlink="http://www.w3.org/1999/xlink" width="512" height="512" x="0" y="0" viewBox="0 0 512.001 512.001" style="enable-background:new 0 0 512 512" xml:space="preserve" class=""><g><path d="M502.691 237.592H369.557c-4.273 0-7.971-2.941-8.962-7.098-9.34-39.149-40.285-69.997-79.487-79.198-4.173-.98-7.132-4.684-7.132-8.97V9.242c0-5.496 4.775-9.748 10.24-9.17 58.153 6.163 112.04 31.784 153.981 73.714 41.822 41.833 67.426 95.566 73.663 153.553.587 5.47-3.668 10.253-9.169 10.253z" style="" fill="#000000" data-original="#ff7258" class="" opacity="1"></path><path d="M273.976 142.327v-27.398c64.094 7.919 114.929 58.629 123.045 122.665h-27.463c-4.273 0-7.971-2.941-8.962-7.098-9.34-39.149-40.285-69.997-79.487-79.198-4.174-.98-7.133-4.685-7.133-8.971z" style="" fill="#000000" data-original="#f95d48" class="" opacity="1"></path><path d="M511.949 282.405c-5.128 49.126-24.143 95.221-55.135 133.648-3.454 4.281-9.844 4.657-13.733.767l-74.535-74.535-19.612-19.612c-3.035-3.035-3.549-7.747-1.294-11.399a106.135 106.135 0 0 0 13.134-31.921c.968-4.194 4.678-7.177 8.982-7.177H502.78c5.491-.001 9.74 4.767 9.169 10.229z" style="" fill="#000000" data-original="#ffdc65" class="" opacity="1"></path><path d="M397.192 272.175c-3.055 26.225-13.269 50.26-28.646 70.11l-19.612-19.612c-3.035-3.035-3.549-7.747-1.294-11.399a106.135 106.135 0 0 0 13.134-31.921c.968-4.194 4.678-7.177 8.982-7.177h27.436z" style="" fill="#000000" data-original="#ffc846" class="" opacity="1"></path><path d="M418.671 441.32c3.884 3.884 3.517 10.261-.75 13.718-45.519 36.882-101.83 56.943-161.237 56.943-68.554 0-133.015-26.709-181.501-75.182C26.971 388.588.302 324.58.002 256.46c-.301-68.411 26.807-134.3 75.182-182.674C117.118 31.852 171.012 6.231 229.173.072c5.457-.577 10.219 3.686 10.219 9.173v133.082c0 4.294-2.971 7.994-7.152 8.976-47.164 11.08-82.383 53.492-82.383 103.996 0 58.894 47.92 106.825 106.825 106.825 20.711 0 40.058-5.931 56.447-16.173 3.655-2.284 8.392-1.778 11.439 1.269l94.103 94.1z" style="" fill="#000000" data-original="#00abe0" class="" opacity="1"></path><path d="m324.571 347.22 19.653 19.653c-24.131 19.06-54.632 30.448-87.785 30.455-78.517.017-141.564-62.84-141.772-141.356-.194-72.693 54.342-132.695 124.728-141.113v27.467c0 4.294-2.971 7.994-7.151 8.976-47.164 11.08-82.383 53.492-82.383 103.996 0 58.894 47.92 106.825 106.825 106.825 20.711 0 40.058-5.931 56.447-16.173 3.654-2.283 8.39-1.777 11.438 1.27z" style="" fill="#000000" data-original="#099dd1" class="" opacity="1"></path></g></svg>