<svg xmlns="http://www.w3.org/2000/svg" version="1.1" xmlns:xlink="http://www.w3.org/1999/xlink" width="512" height="512" x="0" y="0" viewBox="0 0 32 32" style="enable-background:new 0 0 512 512" xml:space="preserve" class=""><g><path d="M28 2h-2a1 1 0 0 0-1 1c0 .43.274.79.656.93L23 6.586l-1.293-1.293a1 1 0 0 0-1.414 0L18 7.586v2.828l3-3 1.293 1.293a1 1 0 0 0 1.414 0l3.363-3.362c.14.38.5.655.93.655a1 1 0 0 0 1-1V3a1 1 0 0 0-1-1zM11.239 16H30v-3a1 1 0 0 0-1-1H12.839zM10.838 12l-1.6 4h.924l1.6-4zM8.162 16l1.6-4H3a1 1 0 0 0-1 1v3zM7 13a1 1 0 1 1 0 2 1 1 0 0 1 0-2zm-3 0a1 1 0 1 1 0 2 1 1 0 0 1 0-2zM17 11h-4V3a1 1 0 0 1 1-1h2a1 1 0 0 1 1 1zM12 11H8V6a1 1 0 0 1 1-1h2a1 1 0 0 1 1 1zM7 11H3V9a1 1 0 0 1 1-1h2a1 1 0 0 1 1 1zM7 30h5c0-.899.049-1.808.144-2.693C8.992 27.834 7 28.96 7 30zM13.16 27.16A24.54 24.54 0 0 0 13 30h6c0-1.01-.058-1.96-.16-2.84-.88-.102-1.83-.16-2.84-.16s-1.96.058-2.84.16zM20 30h5c0-1.04-1.992-2.166-5.144-2.693.095.885.144 1.794.144 2.693zM19.721 26.279c2.064.316 3.904.9 5.05 1.73a9.003 9.003 0 0 0-6.78-6.78c.83 1.146 1.414 2.986 1.73 5.05zM12.279 26.279c.316-2.064.9-3.904 1.73-5.05a9.002 9.002 0 0 0-6.78 6.78c1.146-.83 2.986-1.414 5.05-1.73zM16 21c-1.04 0-2.166 1.992-2.693 5.144a25.353 25.353 0 0 1 5.386 0C18.166 22.992 17.04 21 16 21z" fill="#ffffff" opacity="1" data-original="#000000" class=""></path><path d="M2 17v12a1 1 0 0 0 1 1h3c0-5.523 4.477-10 10-10s10 4.477 10 10h3a1 1 0 0 0 1-1V17z" fill="#ffffff" opacity="1" data-original="#000000" class=""></path></g></svg>