<svg xmlns="http://www.w3.org/2000/svg" version="1.1" xmlns:xlink="http://www.w3.org/1999/xlink" width="512" height="512" x="0" y="0" viewBox="0 0 511.999 511.999" style="enable-background:new 0 0 512 512" xml:space="preserve" class=""><g><path d="M376.241 336.677a7.5 7.5 0 0 0-7.5 7.5v128.258c0 13.545-11.02 24.564-24.564 24.564H87.66c-13.545 0-24.564-11.02-24.564-24.564V215.919c0-13.545 11.02-24.565 24.564-24.565h224.45a7.5 7.5 0 0 0 0-15H87.66c-21.816 0-39.564 17.749-39.564 39.565v256.516c0 21.816 17.749 39.564 39.564 39.564h256.516c21.816 0 39.564-17.749 39.564-39.564V344.177a7.498 7.498 0 0 0-7.499-7.5z" fill="#ffffff" opacity="1" data-original="#000000" class=""></path><path d="M440.371 0h-80.162c-12.976 0-23.532 10.556-23.532 23.532V256c0 35.076 28.537 63.613 63.613 63.613s63.613-28.537 63.613-63.613V23.532C463.902 10.556 453.346 0 440.371 0zm8.532 256c0 26.805-21.808 48.613-48.613 48.613S351.676 282.805 351.676 256V23.532c0-4.705 3.828-8.532 8.532-8.532h80.162c4.705 0 8.532 3.828 8.532 8.532V256z" fill="#ffffff" opacity="1" data-original="#000000" class=""></path><path d="M376.322 48.097h-.081c-4.142 0-7.459 3.358-7.459 7.5 0 4.142 3.398 7.5 7.54 7.5a7.5 7.5 0 0 0 0-15zM400.371 48.097h-.08c-4.142 0-7.46 3.358-7.46 7.5 0 4.142 3.398 7.5 7.54 7.5a7.5 7.5 0 0 0 0-15zM424.338 48.097h-.08c-4.142 0-7.46 3.358-7.46 7.5 0 4.142 3.398 7.5 7.54 7.5a7.5 7.5 0 0 0 0-15zM376.322 72.145h-.081c-4.142 0-7.459 3.358-7.459 7.5 0 4.142 3.398 7.5 7.54 7.5a7.5 7.5 0 0 0 0-15zM400.371 72.145h-.08c-4.142 0-7.46 3.358-7.46 7.5 0 4.142 3.398 7.5 7.54 7.5a7.5 7.5 0 0 0 0-15zM424.338 72.145h-.08c-4.142 0-7.46 3.358-7.46 7.5 0 4.142 3.398 7.5 7.54 7.5a7.5 7.5 0 0 0 0-15zM376.322 96.194h-.081c-4.142 0-7.459 3.358-7.459 7.5 0 4.142 3.398 7.5 7.54 7.5a7.5 7.5 0 0 0 0-15zM400.371 96.194h-.08c-4.142 0-7.46 3.358-7.46 7.5 0 4.142 3.398 7.5 7.54 7.5a7.5 7.5 0 0 0 0-15zM424.338 96.194h-.08c-4.142 0-7.46 3.358-7.46 7.5 0 4.142 3.398 7.5 7.54 7.5a7.5 7.5 0 0 0 0-15zM376.322 128.258h-.081c-4.142 0-7.459 3.358-7.459 7.5 0 4.142 3.398 7.5 7.54 7.5a7.5 7.5 0 0 0 0-15zM424.338 128.258h-.08c-4.142 0-7.46 3.358-7.46 7.5 0 4.142 3.398 7.5 7.54 7.5a7.5 7.5 0 0 0 0-15zM376.322 224.452h-.081c-4.142 0-7.459 3.358-7.459 7.5 0 4.142 3.398 7.5 7.54 7.5a7.5 7.5 0 0 0 0-15zM424.338 224.452h-.08c-4.142 0-7.46 3.358-7.46 7.5 0 4.142 3.398 7.5 7.54 7.5a7.5 7.5 0 0 0 0-15zM400.29 152.306c-17.396 0-31.549 14.153-31.549 31.548 0 17.396 14.153 31.549 31.549 31.549s31.548-14.153 31.548-31.549c0-17.395-14.152-31.548-31.548-31.548zm0 48.097c-9.125 0-16.549-7.424-16.549-16.549s7.424-16.548 16.549-16.548 16.548 7.424 16.548 16.548c0 9.126-7.423 16.549-16.548 16.549zM207.902 296.597h-64.129a7.5 7.5 0 0 0 0 15h24.564v64.645a7.5 7.5 0 0 0 15 0v-64.645h24.565a7.5 7.5 0 0 0 0-15zM298.452 296.981a7.5 7.5 0 0 0-9.487 4.744l-21.513 64.54c-.494 1.481-1.875 2.477-3.437 2.477s-2.942-.995-3.436-2.476l-21.513-64.541a7.5 7.5 0 0 0-14.231 4.743l21.514 64.541a18.6 18.6 0 0 0 17.666 12.733 18.601 18.601 0 0 0 17.667-12.733l21.514-64.541a7.5 7.5 0 0 0-4.744-9.487zM223.934 464.936h-16.032a7.5 7.5 0 0 0 0 15h16.032a7.5 7.5 0 0 0 0-15zM272.032 464.936H256a7.5 7.5 0 0 0 0 15h16.032a7.5 7.5 0 0 0 0-15zM175.838 464.936h-16.032a7.5 7.5 0 0 0 0 15h16.032a7.5 7.5 0 0 0 0-15z" fill="#ffffff" opacity="1" data-original="#000000" class=""></path></g></svg>